<svg id="Layer_3" enable-background="new 0 0 64 64" height="512" viewBox="0 0 64 64" width="512" xmlns="http://www.w3.org/2000/svg"><g><path d="m62 43h-1v-9c0-.553-.447-1-1-1h-1v-10c0-.404-.243-.769-.617-.924s-.804-.069-1.09.217l-2.293 2.293-2.293-2.293c-.391-.391-1.023-.391-1.414 0l-2.293 2.293-2.293-2.293c-.286-.286-.716-.371-1.09-.217-.374.155-.617.52-.617.924v10h-1c-.553 0-1 .447-1 1v9h-11v-1c0-1.654-1.346-3-3-3h-1v-6h10c2.757 0 5-2.243 5-5v-22c0-2.757-2.243-5-5-5h-32c-2.757 0-5 2.243-5 5v22c0 2.757 2.243 5 5 5h10v6h-1c-1.654 0-3 1.346-3 3v1h-10c-.553 0-1 .447-1 1v18c0 .553.447 1 1 1h60c.553 0 1-.447 1-1v-18c0-.553-.447-1-1-1zm-15-17.586 1.293 1.293c.391.391 1.023.391 1.414 0l2.293-2.293 2.293 2.293c.391.391 1.023.391 1.414 0l1.293-1.293v7.586h-10zm-2 9.586h14v8h-14zm-39-32h32c1.654 0 3 1.346 3 3v19h-38v-19c0-1.654 1.346-3 3-3zm-3 25v-1h38v1c0 1.654-1.346 3-3 3h-32c-1.654 0-3-1.346-3-3zm15 5h8v6h-8zm-4 9c0-.552.448-1 1-1h14c.552 0 1 .448 1 1v1h-16zm47 19h-58v-16h58z"/><path d="m6 59h28c.553 0 1-.447 1-1v-10c0-.553-.447-1-1-1h-28c-.553 0-1 .447-1 1v10c0 .553.447 1 1 1zm20.382-10-1 2h-10.764l-1-2zm-19.382 0h4.382l1.724 3.447c.169.339.515.553.894.553h12c.379 0 .725-.214.895-.553l1.723-3.447h4.382v8h-26z"/><path d="m22 19c-1.103 0-2-.897-2-2h-2c0 1.858 1.279 3.411 3 3.858v2.142h2v-2.142c1.721-.447 3-2 3-3.858 0-2.206-1.794-4-4-4-1.103 0-2-.897-2-2s.897-2 2-2 2 .897 2 2h2c0-1.858-1.279-3.411-3-3.858v-2.142h-2v2.142c-1.721.447-3 2-3 3.858 0 2.206 1.794 4 4 4 1.103 0 2 .897 2 2s-.897 2-2 2z"/><path d="m38 53h4c.553 0 1-.447 1-1v-4c0-.553-.447-1-1-1h-4c-.553 0-1 .447-1 1v4c0 .553.447 1 1 1zm1-4h2v2h-2z"/><path d="m46 53h4c.553 0 1-.447 1-1v-4c0-.553-.447-1-1-1h-4c-.553 0-1 .447-1 1v4c0 .553.447 1 1 1zm1-4h2v2h-2z"/><path d="m54 53h4c.553 0 1-.447 1-1v-4c0-.553-.447-1-1-1h-4c-.553 0-1 .447-1 1v4c0 .553.447 1 1 1zm1-4h2v2h-2z"/><path d="m37 57h22v2h-22z"/><path d="m49 29h6v2h-6z"/><path d="m55 37h2v2h-2z"/><path d="m49 12h2v8h-2z"/><path d="m53 10h2v7h-2z"/></g></svg>