<svg id="Layer_9" enable-background="new 0 0 2000 2000" height="512" viewBox="0 0 2000 2000" width="512" xmlns="http://www.w3.org/2000/svg"><path d="m1979.085 611.653-164.213-348.401c-15.44-32.756-48.815-53.921-85.027-53.921h-1459.691c-36.213 0-69.587 21.165-85.026 53.922l-164.214 348.4c-31.949 67.783-27.064 146.032 13.07 209.315 33.278 52.474 86.196 87.412 146.026 97.818v804.245h-76.134c-18.678 0-33.819 15.141-33.819 33.819s15.141 33.819 33.819 33.819h1795.914c18.678 0 33.819-15.141 33.819-33.819s-15.141-33.819-33.819-33.819h-79.8v-804.245c59.83-10.405 112.747-45.343 146.026-97.818 40.132-63.283 45.018-141.532 13.069-209.315zm-543.86-334.684 109.345 386.648c12.901 45.621 3.897 93.471-24.704 131.282s-72.194 59.496-119.603 59.496h-18.578c-77.815 0-142.002-58.421-149.305-135.893l-3.25-34.477c-.001-.007-.001-.013-.002-.02l-38.37-407.036zm-597.015 413.401 38.97-413.4h245.641l38.97 413.4c4.007 42.552-9.63 83.393-38.399 115.003-28.773 31.613-68.16 49.022-110.905 49.022h-24.971c-42.747 0-82.134-17.411-110.906-49.023-28.771-31.61-42.408-72.451-38.4-115.002zm-28.969-413.401-38.37 407.036c-.001.007-.001.013-.002.02l-3.25 34.477c-7.303 77.472-71.49 135.893-149.304 135.893h-18.578c-47.409 0-91.003-21.685-119.604-59.496-28.596-37.804-37.601-85.645-24.709-131.259l109.351-386.671zm-718.137 507.775c-27.658-43.613-31.026-97.54-9.008-144.254l164.215-348.4c4.329-9.185 13.688-15.12 23.843-15.12h224.331l-132.428 468.268c-18.175 64.27-77.516 109.157-144.306 109.157-51.644 0-98.989-26.038-126.647-69.651zm1661.248 938.287h-951.269v-776.176c0-18.678-15.141-33.819-33.819-33.819s-33.819 15.141-33.819 33.819v776.175h-485.797v-803.028c36.722-5.016 71.319-19.29 101.378-42.026 24.93-18.858 45.111-42.304 59.728-69.137 5.103 9.268 10.918 18.247 17.437 26.865 41.5 54.864 104.755 86.33 173.547 86.33h18.578c54.298 0 106.316-20.128 146.471-56.677 14.875-13.539 27.654-28.914 38.115-45.65 6.895 11.012 14.801 21.431 23.686 31.194 20.15 22.138 44.127 39.592 71.267 51.877 28.229 12.777 58.395 19.256 89.661 19.256h24.971c31.266 0 61.431-6.479 89.66-19.256 27.14-12.285 51.117-29.739 71.267-51.877 8.885-9.762 16.791-20.182 23.687-31.194 10.461 16.736 23.239 32.111 38.115 45.65 40.155 36.549 92.173 56.677 146.471 56.677h18.578c68.791 0 132.047-31.466 173.546-86.33 6.519-8.618 12.334-17.596 17.437-26.865 14.616 26.833 34.797 50.279 59.729 69.137 30.058 22.736 64.654 37.009 101.377 42.026v803.029zm156.544-938.287c-27.658 43.613-75.003 69.651-126.646 69.651h-.001c-66.79 0-126.13-44.887-144.307-109.157l-132.426-468.269h224.33c10.155 0 19.515 5.935 23.845 15.12l164.213 348.4c22.018 46.715 18.65 100.642-9.008 144.255zm-1566.787 495.639c-28.339 0-51.312 22.973-51.312 51.311 0 28.339 22.973 51.313 51.312 51.313s51.312-22.973 51.312-51.313c0-28.338-22.973-51.311-51.312-51.311zm684.619-252.236c13.207-13.208 13.207-34.62 0-47.828-13.207-13.207-34.621-13.207-47.828 0l-114.032 114.031c-13.207 13.208-13.207 34.62 0 47.828 6.603 6.603 15.259 9.905 23.914 9.905s17.311-3.302 23.914-9.905zm109.477-2.984-226.492 226.493c-13.207 13.208-13.207 34.62 0 47.828 6.604 6.603 15.259 9.905 23.914 9.905s17.311-3.302 23.914-9.905l226.492-226.493c13.207-13.208 13.207-34.62 0-47.828-13.209-13.207-34.622-13.207-47.828 0z"/></svg>