<svg id="Capa_1" enable-background="new 0 0 512 512" height="512" viewBox="0 0 512 512" width="512" xmlns="http://www.w3.org/2000/svg"><g><path d="m366 452c16.542 0 30-13.458 30-30v-392c0-16.542-13.458-30-30-30h-220c-16.542 0-30 13.458-30 30v392c0 16.542 13.458 30 30 30h70v40h-70c-5.523 0-10 4.477-10 10s4.477 10 10 10h220c5.523 0 10-4.477 10-10s-4.477-10-10-10h-70v-40zm-230-30v-392c0-5.514 4.486-10 10-10h220c5.514 0 10 4.486 10 10v392c0 5.514-4.486 10-10 10h-220c-5.514 0-10-4.486-10-10zm140 70h-40v-40h40z"/><path d="m186 255h140c5.523 0 10-4.477 10-10v-100c0-5.523-4.477-10-10-10h-140c-5.523 0-10 4.477-10 10v100c0 5.523 4.477 10 10 10z"/><path d="m336 305c0-5.523-4.477-10-10-10h-140c-5.523 0-10 4.477-10 10s4.477 10 10 10h140c5.523 0 10-4.477 10-10z"/><path d="m243.071 103.071 12.929-12.929 12.929 12.929c3.905 3.905 10.237 3.905 14.143 0 3.905-3.905 3.905-10.237 0-14.143l-20-20c-3.905-3.905-10.237-3.905-14.143 0l-20 20c-3.905 3.905-3.905 10.237 0 14.143s10.237 3.906 14.142 0z"/><path d="m248.929 383.071c3.905 3.905 10.237 3.905 14.143 0l20-20c3.905-3.905 3.905-10.237 0-14.143s-10.237-3.905-14.143 0l-12.929 12.93-12.929-12.929c-3.905-3.905-10.237-3.905-14.143 0s-3.905 10.237 0 14.143z"/></g></svg>